<svg id="svg2" xmlns="http://www.w3.org/2000/svg" viewBox="0 0 32.96 67.96"><defs><style>.cls-1,.cls-2{stroke:#000;}.cls-2{fill:none;stroke-width:3px;}</style></defs><title>Music-sixteenthrest</title><g id="g3862"><g id="g3193"><path id="path3185" class="cls-1" d="M14.48,31.49a7,7,0,1,1-14,0h0a7,7,0,1,1,14,0Z"/><path id="path3189" class="cls-2" d="M13.07,68c0-1,11.69-41.41,11.69-41.41"/><path id="path3191" class="cls-2" d="M7.05,37.45c5.47.37,15.72-1,17.57-10.51-2.36,3.71-2.44,11-16.14,7.77"/><g id="g3289"><path id="path3185-0" class="cls-1" d="M21.24,7.49a7,7,0,1,1-7-7A7,7,0,0,1,21.24,7.49Z"/><path id="path3189-7" class="cls-2" d="M24.69,26.9c0-1,6.83-24.35,6.83-24.35"/><path id="path3191-6" class="cls-2" d="M13.81,13.45c5.47.37,15.72-1,17.57-10.51-2.36,3.71-2.44,11-16.14,7.77"/></g></g></g></svg>