<svg id="svg2" xmlns="http://www.w3.org/2000/svg" viewBox="0 0 52.74 96.22"><defs><style>.cls-1{fill-rule:evenodd;}</style></defs><title>Music-dotsemiquaver</title><g id="layer3"><g id="g3854"><g id="g3797"><path id="path3794" d="M43.9,84.08A4.1,4.1,0,1,1,39.8,80a4.11,4.11,0,0,1,4.1,4.12Z"/></g></g></g><g id="g3782"><path id="rect2987" class="cls-1" d="M26.2,0V74.5c-2.2-3.1-11.1-3.6-17.4-.2C1.4,78.4-2,86.1,1.2,91.4s11.9,6.4,19.3,2.3c4.5-2.5,7.4-6.2,8.4-10a14.86,14.86,0,0,0,.2-4.6V26.7c32.6,8.2,17.6,36.8,14.6,46.9C70.4,37.1,29.5,22.2,29.1.1Z"/></g></svg>