<svg id="svg2" xmlns="http://www.w3.org/2000/svg" viewBox="0 0 54.46 95.36"><title>Music-dotsemi-demiquaver</title><g id="layer3"><g id="g3854"><g id="g3797"><path id="path3794" d="M43.9,83.22a4.1,4.1,0,1,1-4.1-4.12,4.1,4.1,0,0,1,4.1,4.12Z"/></g></g></g><path id="path2991" d="M25.77,0V74.06c-1.88-2.54-9.76-4.2-16.57.16S-1.69,85.85.67,90.16c2.69,4.91,11.64,7.54,18.75,2.43a28.59,28.59,0,0,0,8.41-9.84V38.09c19.08,11.66,29.43,15,19.81,41.32C66,51.33,43.1,47.64,27.83,20.09V18c25.86,13.12,20.68,25.39,23,32.13,6.43-27-16.66-29.69-23-48.82V.16Z"/></svg>