<svg id="svg2" xmlns="http://www.w3.org/2000/svg" viewBox="0 0 53.76 108.86"><title>Music-thirtysecondnote</title><g id="g3850"><path id="path2991" d="M25.58,0l.19,87.56C23.89,85,16,83.36,9.2,87.72S-1.69,99.35.67,103.66c2.69,4.91,11.64,7.54,18.75,2.43a28.73,28.73,0,0,0,8.41-9.84V51.59C46.72,64.06,56,66.46,46.39,92.78c9.44-12.19,8.76-20.06,3.81-28.22a47.13,47.13,0,0,0,.28-13.06C55.89,20.21,36.82,22.9,27.83,3.22V.16Zm2.25,18.22c19,10.24,20.72,20.27,21.22,28-3.68-8.55-12.51-11.15-21.22-25.34Zm0,15.37C47.06,50,47,46.1,49.3,63.13,44.05,55.2,35.12,46.74,27.83,33.59Z"/></g></svg>