<?xml version="1.0" encoding="utf-8"?>
<!-- Generator: Adobe Illustrator 23.0.2, SVG Export Plug-In . SVG Version: 6.00 Build 0)  -->
<svg version="1.1"
	 id="svg2" xmlns:cc="http://creativecommons.org/ns#" xmlns:dc="http://purl.org/dc/elements/1.1/" xmlns:rdf="http://www.w3.org/1999/02/22-rdf-syntax-ns#" xmlns:svg="http://www.w3.org/2000/svg"
	 xmlns="http://www.w3.org/2000/svg" xmlns:xlink="http://www.w3.org/1999/xlink" x="0px" y="0px" viewBox="0 0 30.4 101.4"
	 style="enable-background:new 0 0 30.4 101.4;" xml:space="preserve">
<g id="g3862" transform="translate(-0.24707682,-46.942827)">
	<path id="path3859" d="M0.2,139.3c0-4.5,2.1-8.5,6.4-12c4.3-3.6,8.9-5.4,13.7-5.4c2.8,0,5.3,0.7,7.5,2.2V46.9h2.8v84.4
		c0,4.9-2.1,8.9-6.2,12.1c-4.1,3.2-8.7,4.8-13.7,4.8c-2.8,0-5.2-0.8-7.3-2.5C1.3,144.1,0.2,142,0.2,139.3 M6.1,143.3
		c4.5,0,9-2,13.5-5.9c4.6-3.9,7-6.8,7-8.7c0-1.2-0.5-1.8-1.5-1.8c-3.1,0-7.4,1.9-12.9,5.6c-5.4,3.7-8.1,6.7-8.1,9.1
		C4,142.7,4.7,143.3,6.1,143.3"/>
</g>
</svg>
